<svg width="62" height="68" viewBox="0 0 62 68" fill="none" xmlns="http://www.w3.org/2000/svg">
<path d="M40.2 49.37L42.96 48.92V27.08L40.2 26.66V26H49.35C51.51 26 53.23 26.2 54.51 26.6C55.79 27 56.72 27.61 57.3 28.43C57.88 29.23 58.17 30.29 58.17 31.61C58.17 34.49 56.35 36.33 52.71 37.13V37.28C54.93 37.58 56.65 38.24 57.87 39.26C59.11 40.28 59.73 41.7 59.73 43.52C59.73 45.72 58.92 47.35 57.3 48.41C55.7 49.47 53.53 50 50.79 50H40.2V49.37ZM49.59 37.04C51.19 37.04 52.42 36.59 53.28 35.69C54.14 34.79 54.57 33.51 54.57 31.85V31.67C54.57 28.39 52.83 26.75 49.35 26.75H46.26V37.04H49.59ZM50.79 49.28C52.49 49.28 53.81 48.79 54.75 47.81C55.69 46.81 56.16 45.39 56.16 43.55V43.22C56.16 41.4 55.69 40.04 54.75 39.14C53.83 38.24 52.51 37.79 50.79 37.79H46.26V49.28H50.79Z" fill="#69CCA1"/>
<path d="M40.2 49.37L40.0391 48.383L39.2 48.5198V49.37H40.2ZM42.96 48.92L43.1209 49.907L43.96 49.7702V48.92H42.96ZM42.96 27.08H43.96V26.2207L43.1104 26.0914L42.96 27.08ZM40.2 26.66H39.2V27.5193L40.0496 27.6486L40.2 26.66ZM40.2 26V25H39.2V26H40.2ZM57.3 28.43L56.4835 29.0075L56.4904 29.017L57.3 28.43ZM52.71 37.13L52.4953 36.1533L51.71 36.3259V37.13H52.71ZM52.71 37.28H51.71V38.154L52.5761 38.271L52.71 37.28ZM57.87 39.26L57.2286 40.0272L57.2347 40.0323L57.87 39.26ZM57.3 48.41L56.7525 47.5732L56.7477 47.5763L57.3 48.41ZM40.2 50H39.2V51H40.2V50ZM53.28 35.69L52.557 34.9991L52.557 34.9991L53.28 35.69ZM46.26 26.75V25.75H45.26V26.75H46.26ZM46.26 37.04H45.26V38.04H46.26V37.04ZM54.75 47.81L55.4717 48.5023L55.4786 48.4949L54.75 47.81ZM54.75 39.14L54.0507 39.8549L54.0584 39.8623L54.75 39.14ZM46.26 37.79V36.79H45.26V37.79H46.26ZM46.26 49.28H45.26V50.28H46.26V49.28ZM40.3609 50.357L43.1209 49.907L42.7991 47.933L40.0391 48.383L40.3609 50.357ZM43.96 48.92V27.08H41.96V48.92H43.96ZM43.1104 26.0914L40.3504 25.6714L40.0496 27.6486L42.8096 28.0686L43.1104 26.0914ZM41.2 26.66V26H39.2V26.66H41.2ZM40.2 27H49.35V25H40.2V27ZM49.35 27C51.4626 27 53.0688 27.1973 54.2117 27.5545L54.8083 25.6455C53.3912 25.2027 51.5574 25 49.35 25V27ZM54.2117 27.5545C55.3522 27.9109 56.0669 28.4183 56.4836 29.0075L58.1164 27.8525C57.3731 26.8017 56.2279 26.0891 54.8083 25.6455L54.2117 27.5545ZM56.4904 29.017C56.9111 29.5972 57.17 30.4308 57.17 31.61H59.17C59.17 30.1492 58.8489 28.8628 58.1096 27.843L56.4904 29.017ZM57.17 31.61C57.17 32.8191 56.7972 33.7359 56.094 34.4468C55.367 35.1818 54.2058 35.7774 52.4953 36.1533L52.9247 38.1067C54.8542 37.6826 56.423 36.9582 57.516 35.8532C58.6328 34.7241 59.17 33.2809 59.17 31.61H57.17ZM51.71 37.13V37.28H53.71V37.13H51.71ZM52.5761 38.271C54.6822 38.5556 56.2009 39.168 57.2286 40.0272L58.5114 38.4928C57.0991 37.312 55.1778 36.6044 52.8439 36.289L52.5761 38.271ZM57.2347 40.0323C58.2112 40.8355 58.73 41.9541 58.73 43.52H60.73C60.73 41.4459 60.0088 39.7245 58.5053 38.4877L57.2347 40.0323ZM58.73 43.52C58.73 45.4366 58.0478 46.7257 56.7525 47.5732L57.8475 49.2468C59.7922 47.9743 60.73 46.0034 60.73 43.52H58.73ZM56.7477 47.5763C55.3676 48.4907 53.4138 49 50.79 49V51C53.6462 51 56.0324 50.4493 57.8523 49.2436L56.7477 47.5763ZM50.79 49H40.2V51H50.79V49ZM41.2 50V49.37H39.2V50H41.2ZM49.59 38.04C51.381 38.04 52.9042 37.5307 54.003 36.3809L52.557 34.9991C51.9358 35.6493 50.999 36.04 49.59 36.04V38.04ZM54.003 36.3809C55.0935 35.2396 55.57 33.6793 55.57 31.85H53.57C53.57 33.3407 53.1865 34.3404 52.557 34.9991L54.003 36.3809ZM55.57 31.85V31.67H53.57V31.85H55.57ZM55.57 31.67C55.57 29.8602 55.0871 28.3232 53.9509 27.2523C52.8258 26.1918 51.2299 25.75 49.35 25.75V27.75C50.9501 27.75 51.9642 28.1282 52.5791 28.7077C53.1829 29.2768 53.57 30.1998 53.57 31.67H55.57ZM49.35 25.75H46.26V27.75H49.35V25.75ZM45.26 26.75V37.04H47.26V26.75H45.26ZM46.26 38.04H49.59V36.04H46.26V38.04ZM50.79 50.28C52.6895 50.28 54.298 49.7259 55.4717 48.5022L54.0283 47.1178C53.3221 47.8541 52.2905 48.28 50.79 48.28V50.28ZM55.4786 48.4949C56.6454 47.2537 57.16 45.5559 57.16 43.55H55.16C55.16 45.2241 54.7346 46.3663 54.0214 47.1251L55.4786 48.4949ZM57.16 43.55V43.22H55.16V43.55H57.16ZM57.16 43.22C57.16 41.2384 56.6465 39.5714 55.4416 38.4177L54.0584 39.8623C54.7335 40.5086 55.16 41.5616 55.16 43.22H57.16ZM55.4493 38.4252C54.2864 37.2876 52.6809 36.79 50.79 36.79V38.79C52.3391 38.79 53.3736 39.1924 54.0507 39.8548L55.4493 38.4252ZM50.79 36.79H46.26V38.79H50.79V36.79ZM45.26 37.79V49.28H47.26V37.79H45.26ZM46.26 50.28H50.79V48.28H46.26V50.28Z" fill="#192627"/>
<path d="M2.5 27.1538L7.29651 32L2.5 36.8462L2.5 27.1538Z" fill="#1E9980" stroke="#192627"/>
<path d="M23.8 50.5L8.9 11.8V46.95L13.7 48.95V50H3V48.95L7.7 46.95V11.8L3.1 11.1V10H14.15L26.7 42.1L39.5 10H49.6V11.1L45 11.8V48.2L49.6 48.95V50H34.9V48.95L39.5 48.2V13.3L24.7 50.5H23.8Z" fill="#1E9980"/>
<path d="M23.8 50.5L22.8668 50.8593L23.1135 51.5H23.8V50.5ZM8.9 11.8L9.83322 11.4407L7.9 11.8H8.9ZM8.9 46.95H7.9V47.6167L8.51538 47.8731L8.9 46.95ZM13.7 48.95H14.7V48.2833L14.0846 48.0269L13.7 48.95ZM13.7 50V51H14.7V50H13.7ZM3 50H2V51H3V50ZM3 48.95L2.60844 48.0298L2 48.2888V48.95H3ZM7.7 46.95L8.09156 47.8702L8.7 47.6112V46.95H7.7ZM7.7 11.8H8.7V10.9407L7.85044 10.8114L7.7 11.8ZM3.1 11.1H2.1V11.9593L2.94956 12.0886L3.1 11.1ZM3.1 10V9H2.1V10H3.1ZM14.15 10L15.0814 9.63587L14.8327 9H14.15V10ZM26.7 42.1L25.7687 42.4641L26.6908 44.8228L27.6289 42.4704L26.7 42.1ZM39.5 10V9H38.8222L38.5711 9.62961L39.5 10ZM49.6 10H50.6V9H49.6V10ZM49.6 11.1L49.7504 12.0886L50.6 11.9593V11.1H49.6ZM45 11.8L44.8496 10.8114L44 10.9407V11.8H45ZM45 48.2H44V49.0502L44.8391 49.187L45 48.2ZM49.6 48.95H50.6V48.0998L49.7609 47.963L49.6 48.95ZM49.6 50V51H50.6V50H49.6ZM34.9 50H33.9V51H34.9V50ZM34.9 48.95L34.7391 47.963L33.9 48.0998V48.95H34.9ZM39.5 48.2L39.6609 49.187L40.5 49.0502V48.2H39.5ZM39.5 13.3H40.5L38.5708 12.9303L39.5 13.3ZM24.7 50.5V51.5H25.3784L25.6292 50.8697L24.7 50.5ZM24.7332 50.1407L9.83322 11.4407L7.96678 12.1593L22.8668 50.8593L24.7332 50.1407ZM7.9 11.8V46.95H9.9V11.8H7.9ZM8.51538 47.8731L13.3154 49.8731L14.0846 48.0269L9.28462 46.0269L8.51538 47.8731ZM12.7 48.95V50H14.7V48.95H12.7ZM13.7 49H3V51H13.7V49ZM4 50V48.95H2V50H4ZM3.39156 49.8702L8.09156 47.8702L7.30844 46.0298L2.60844 48.0298L3.39156 49.8702ZM8.7 46.95V11.8H6.7V46.95H8.7ZM7.85044 10.8114L3.25044 10.1114L2.94956 12.0886L7.54956 12.7886L7.85044 10.8114ZM4.1 11.1V10H2.1V11.1H4.1ZM3.1 11H14.15V9H3.1V11ZM13.2187 10.3641L25.7687 42.4641L27.6313 41.7359L15.0814 9.63587L13.2187 10.3641ZM27.6289 42.4704L40.4289 10.3704L38.5711 9.62961L25.7711 41.7296L27.6289 42.4704ZM39.5 11H49.6V9H39.5V11ZM48.6 10V11.1H50.6V10H48.6ZM49.4496 10.1114L44.8496 10.8114L45.1504 12.7886L49.7504 12.0886L49.4496 10.1114ZM44 11.8V48.2H46V11.8H44ZM44.8391 49.187L49.4391 49.937L49.7609 47.963L45.1609 47.213L44.8391 49.187ZM48.6 48.95V50H50.6V48.95H48.6ZM49.6 49H34.9V51H49.6V49ZM35.9 50V48.95H33.9V50H35.9ZM35.0609 49.937L39.6609 49.187L39.3391 47.213L34.7391 47.963L35.0609 49.937ZM40.5 48.2V13.3H38.5V48.2H40.5ZM38.5708 12.9303L23.7708 50.1303L25.6292 50.8697L40.4292 13.6697L38.5708 12.9303ZM24.7 49.5H23.8V51.5H24.7V49.5Z" fill="#192627"/>
<path d="M3.5 32H21.5" stroke="#1E9980" stroke-width="4"/>
<line x1="6" y1="30.5" x2="16" y2="30.5" stroke="#192627"/>
<line x1="5" y1="33.5" x2="17" y2="33.5" stroke="#192627"/>
<line x1="5" y1="30.5" x2="6" y2="30.5" stroke="#192627"/>
</svg>
